<?xml version="1.0" encoding="UTF-8" standalone="no"?><svg width="80px" height="80px" version="1.1" viewBox="0 0 195.36482 191.56783"
            xmlns="http://www.w3.org/2000/svg" xmlns:xlink="http://www.w3.org/1999/xlink">
            <defs>
                <radialGradient id="a" cx="11.112578" cy="-428.25681" r="100.00022"
                    gradientTransform="matrix(1.0000673,0,0,1.0000673,-73.831772,659.10129)"
                    gradientUnits="userSpaceOnUse">
                    <stop stop-color="#1736ef" offset="0" />
                    <stop stop-color="#2f3768" offset=".89653701" />
                    <stop stop-color="#18288a" stop-opacity=".54901963" offset="1" />
                    <stop stop-color="#201f5b" stop-opacity="0" offset="1" />
                </radialGradient>
            </defs>
            <g transform="translate(-175.11029,61.581942)">
                <ellipse transform="rotate(44.816851)" cx="-62.718407" cy="230.81564" rx="98.904877" ry="98.904869"
                    fill="url(#a)" opacity=".99" stroke="#4852a3" stroke-linecap="round" stroke-linejoin="round"
                    stroke-width="2.20415" />
                <path
                    d="m185.91151-34.39404c6.77741-9.939571 35.57753-27.748082 53.44196-25.407115 44.23542-2.535449 69.63492 35.975063 54.47317 69.6350871l-6.78973 29.0779839 20.91377 20.077239c-17.45391 2.006199-85.93351 67.042885-60.23173 69.433755l-24.67825-1.25483 5.25058-50.583629c-8.96724 12.491741 21.27465-26.624947 65.53536-66.7505189-59.45543-29.7009451-32.14165-23.2158541-49.51285-32.1353741-16.74274-14.499374-47.88403-16.788822-58.40228-12.092598z"
                    fill="#fcfcfc" stroke="#111" stroke-width="3.13" />
                <g transform="matrix(1.5649959,0,0,1.5649959,-252.8181,480.84496)" stroke="#111"
                    style="mix-blend-mode:normal">
                    <path transform="scale(.26458333)"
                        d="m1202.9485-1156.2667c-12.9544-.2307-71.0325 60.3162-90.2322 71.2561-31.2934 10.8829-29.9582 6.7565-48.7849-15.1302-8.3312-9.6852-6.3865-9.2908-20.6583 26.8858l19.3717 39.8442c26.8204 46.47032 15.0995 23.4507 39.3905 62.84743 29.3484 25.7916 20.7886 19.39538 29.3484 25.7916 36.8911-38.54745 236.1095-245.08963 181.7141-192.47483-37.8593-12.2699-93.5158-16.1968-110.1493-19.0201z"
                        fill="#ccc" stroke-width="3.77953" />
                    <path
                        d="m286.10918-295.31853c.27289-.0121 11.70826-5.29697 13.91821-10.09127 0 2.89782 2.36591 4.02956-.18899 7.08706-5.57842 3.2914-13.80376 3.00168-13.72922 3.00421"
                        fill="#fdfdfd" />
                </g>
                <path
                    d="m245.04736 58.535221c-9.00309 10.291789-11.0816 14.033397-16.75608 18.049223 4.82086-9.708483 11.68878-14.433488 8.02746-30.498703l-13.60523 6.211109c8.73286-6.157492 10.62946-14.318695 12.1474-20.715929l-29.20558 18.471835c10.42333-12.34245 23.56471-37.166666 25.52003-37.228827 19.19059-24.989683 52.6252.153839 59.72334-2.8807507-16.3845 18.1608227-4.07731 8.2117837-22.8187 25.9667247z"
                    fill="#fcfcfc" stroke="#000" stroke-width="1.565" style="mix-blend-mode:normal" />
                <path
                    d="m179.63736 6.5970041c-7.66103-30.7303991 1.39997-32.1972381 6.27415-40.9910441 46.4289-1.456855 55.97484 11.076368 71.52514 21.332066l3.13338 2.154201 30.32868 20.8509575c-17.28548 1.4447885-32.39806-12.6461686-60.64996-6.2741312 2.21497-2.5841213-2.79673-10.2488762-10.03864-9.2020351 6.34758-6.2230812 11.4526-6.2333632 16.73103-7.1107002-17.00988-6.552996-33.44207 29.04994-57.30378 19.2406861z"
                    fill="#ccc" stroke="#111" stroke-width="3.12999" />
                <path
                    d="m293.82664 9.8339321c2.68375 11.5055529-1.73589 29.6071089 10.77217 31.9900969 12.82903-7.039664 25.64234-7.975094 38.44951-6.50683-11.71062.86333-17.66265 3.081633-15.97134 7.098367 14.60472-2.773032 15.54519 7.067068 20.7036 13.013693-5.48335-21.943966 10.57565-13.967965 17.74591-18.337465-4.29638-11.16299-12.90871-16.571397-31.35116-8.872979-15.08584 8.206964-20.3772 4.442899-28.98501 4.732251l13.01369-6.506846c-20.5594 1.923411-17.98185-10.035365-24.37737-16.6102879 5.03189 1.8729249 8.75132 8.3394249 16.68748.047419l-1.77459 7.0983989c3.48955-10.8563136 9.98652-11.186653 16.56287-11.2391116l-11.2391-5.91530901c17.31734 2.05657681 33.89047 14.53255161 52.64628-3.54917589-15.64795-.4541462-11.86285-10.1134105-13.60524-17.1544035-3.58789 11.4644851-10.02187 15.3394151-18.33747 14.1967331l10.64758 5.91530919c-11.16102-2.56329119-22.48284-5.12659799-31.35115-7.68988919-5.59921-1.354551-11.52938-.557858-20.23666 18.290029z"
                    fill="#ccc" stroke="#111" stroke-width="3.12999" />
            </g>
        </svg>